# xmcd
# 
# Track frame offsets:
#     150
#     15793
#     33098
#     46944
#     61974
#     80253
#     96003
#     112882
#     124132
#     139813
#     151957
#     168645
#     184579
#     197875
#     217472
# 
# Disc length: 2969
# 
# Revision: 0
# Processed by: cddbd v1.5.2PL0 Copyright (c) Steve Scherf et al.
# Submitted via: BonkEnc v1.0.8
# 
DISCID=c30b970f
DTITLE=Various Artist - Duck the Halls: A Robertson Family Christmas
DYEAR=2013
DGENRE=Country
TTITLE0=Willie Robertson - Ragin' Cajun Redneck Christmas
TTITLE1=Missy Robertson - I'll Be Home For Christmas
TTITLE2=Uncle Si Robertson - You're A Mean One, Mr. Grinch
TTITLE3=Phil Robertson with George Strait - Christmas Cookies
TTITLE4=Sadie Robertson with Alison Krauss and Mia Robertson - Away In A Manger
TTITLE5=Willie Robertson and Luke Bryan - Hairy Christmas
TTITLE6=Missy Robertson and Jase Robertson - Baby, It's Cold Outside
TTITLE7=Robertson Family - Duck The Halls
TTITLE8=Reed Robertson - Camouflage And Christmas Lights
TTITLE9=Sadie Robertson with Uncle Si Robertson and Robertson Kids - Rudolph The Red-Nosed Reindeer
TTITLE10=Uncle SiRobertson - The Night Before Christmas
TTITLE11=Missy Robertson and Josh Turner - Why I Love Christmas
TTITLE12=Willie Robertson with Li'l Will Robertson, Mia Robertson, and Robertson Kids - Santa Looked A Lot Like Daddy
TTITLE13=Robertson Family - Silent Night
TTITLE14=Phil Robertson and Willie Robertson - Phil's Prayer, Willie's Closing
EXTD=
EXTT0=
EXTT1=
EXTT2=
EXTT3=
EXTT4=
EXTT5=
EXTT6=
EXTT7=
EXTT8=
EXTT9=
EXTT10=
EXTT11=
EXTT12=
EXTT13=
EXTT14=
PLAYORDER=
